# xmcd CD database file
#
# Track frame offsets:
#	150
#	16555
#	32886
#	53769
#	72123
#	86983
#
# Disc length: 1419 seconds
#
# Revision: 0
# Processed by: cddbd v1.5.2PL0 Copyright (c) Steve Scherf et al.
# Submitted via: CDex 1.51
#
DISCID=43058906
DTITLE=Brooks Williams - Live Blues EP
DYEAR=2010
DGENRE=Blues
TTITLE0=Statesboro Blues
TTITLE1=Weeping Willow
TTITLE2=Frank Delandry
TTITLE3=Walk You Off My Mind
TTITLE4=Amazing Grace
TTITLE5=Louis Collins
EXTD=YEAR: 2010
EXTT0=
EXTT1=
EXTT2=
EXTT3=
EXTT4=
EXTT5=
PLAYORDER=
